<svg width="100" height="100" xmlns="http://www.w3.org/2000/svg" xmlns:undefined="https://sketch.io/dtd/" version="1.1">

 <g>
  <title>Layer 1</title>
  <g stroke="null" id="svg_44">
   <path stroke="null" id="svg_1" fill="#ffeeaa" d="m0.5538,50.19729l24.87425,-49.81363l49.83225,-0.05579l24.95801,49.75785l-24.87425,49.8117l-49.83225,0.05579l-24.958,-49.75591z" />
   <path stroke="null" id="svg_2" fill="#ffffff" d="m28.64902,5.78583l44.41804,0.05786l22.16508,44.40433l-22.25297,44.34647l-44.41804,-0.05786l-22.16508,-44.40433l22.25297,-44.34647z" />
   <g stroke="null" id="svg_3" transform="matrix(0.0852852 -0.164824 0.142878 0.0983851 755.07 597.718)" >
    <g stroke="null" id="svg_4" >
     <g stroke="null" id="svg_5" >
      <path stroke="null" id="svg_6" fill="#000000"  d="m256.41337,-4845.20307l0,0q-1.55188,0 -2.85307,-0.54912q-1.30119,-0.54913 -2.23231,-1.58769q-0.93112,-1.03856 -1.45637,-2.55463q-0.52525,-1.51606 -0.52525,-3.42606l0,0q0,-1.88612 0.53718,-3.39025q0.53719,-1.50412 1.49219,-2.55463q0.955,-1.0505 2.28006,-1.61156q1.32507,-0.56106 2.87694,-0.56106l0,0q0.81175,0 1.49219,0.16712q0.68044,0.16713 1.2415,0.44169q0.56106,0.27456 1.00275,0.62075q0.44168,0.34619 0.77593,0.70431l0,0l-1.09824,1.28926q-0.59688,-0.62076 -1.38476,-1.05051q-0.78787,-0.42974 -1.98162,-0.42974l0,0q-1.19375,0 -2.14875,0.44168q-0.955,0.44169 -1.6235,1.26538q-0.6685,0.82368 -1.03856,1.99356q-0.37007,1.16988 -0.37007,2.62625l0,0q0,1.48025 0.34619,2.66206q0.34619,1.18182 1.00275,2.01744q0.65657,0.83563 1.6235,1.28925q0.96694,0.45362 2.23232,0.45362l0,0q0.83562,0 1.58768,-0.25068q0.75206,-0.25069 1.22957,-0.68044l0,0l0,-4.08262l-3.31863,0l0,-1.64738l5.13312,0l0,6.5895q-0.76399,0.78788 -2.00549,1.30119q-1.2415,0.51331 -2.81725,0.51331zl0,0zm10.33787,-0.2865l-1.95775,0l0,-11.60325l1.95775,0l0,11.60325zl0,0zm-0.955,-13.99075l0,0q-0.573,0 -0.96694,-0.35812q-0.39393,-0.35813 -0.39393,-0.90726l0,0q0,-0.57299 0.39393,-0.91918q0.39394,-0.34619 0.96694,-0.34619l0,0q0.573,0 0.96694,0.34619q0.39393,0.34619 0.39393,0.91918l0,0q0,0.54913 -0.39393,0.90726q-0.39394,0.35812 -0.96694,0.35812zl0,0zm8.52338,14.27725l0,0q-0.93113,0 -1.56382,-0.2865q-0.63268,-0.2865 -1.02662,-0.78787q-0.39394,-0.50138 -0.56106,-1.21763q-0.16713,-0.71625 -0.16713,-1.57575l0,0l0,-6.42237l-1.719,0l0,-1.48025l1.8145,-0.11938l0.23875,-3.247l1.64738,0l0,3.247l3.12762,0l0,1.59963l-3.12762,0l0,6.44624q0,1.07438 0.39393,1.65932q0.39394,0.58494 1.39669,0.58494l0,0q0.31038,0 0.6685,-0.09551q0.35813,-0.09549 0.64463,-0.21487l0,0l0.382,1.48025q-0.4775,0.16713 -1.03857,0.29844q-0.56106,0.13131 -1.11018,0.13131zl0,0zm8.66662,0l0,0q-1.146,0 -2.14875,-0.40588q-1.00275,-0.40587 -1.73094,-1.18181q-0.72818,-0.77593 -1.146,-1.91q-0.41781,-1.13406 -0.41781,-2.56656l0,0q0,-1.45637 0.45363,-2.59044q0.45362,-1.13406 1.21762,-1.92193q0.764,-0.78788 1.77869,-1.19375q1.01469,-0.40588 2.13681,-0.40588l0,0q1.146,0 1.95775,0.40588q0.81175,0.40587 1.4325,0.955l0,0l-1.00275,1.28924q-0.50137,-0.45362 -1.06244,-0.74012q-0.56106,-0.2865 -1.25343,-0.2865l0,0q-0.78788,0 -1.45638,0.32231q-0.6685,0.32232 -1.146,0.91919q-0.4775,0.59687 -0.75206,1.42056q-0.27456,0.82369 -0.27456,1.82644l0,0q0,1.00275 0.26262,1.8145q0.26263,0.81175 0.72819,1.39669q0.46556,0.58493 1.13406,0.90725q0.6685,0.32231 1.45638,0.32231l0,0q0.81175,0 1.49218,-0.34619q0.68044,-0.34619 1.22957,-0.82369l0,0l0.8595,1.31313q-0.78788,0.69238 -1.74288,1.08631q-0.955,0.39394 -2.0055,0.39394zl0,0zm10.314,0l0,0q-1.07437,0 -2.04131,-0.40588q-0.96694,-0.40587 -1.70706,-1.18181q-0.74013,-0.77593 -1.18182,-1.91q-0.44168,-1.13406 -0.44168,-2.56656l0,0q0,-1.45637 0.44168,-2.59044q0.44169,-1.13406 1.18182,-1.92193q0.74012,-0.78788 1.70706,-1.19375q0.96694,-0.40588 2.04131,-0.40588l0,0q1.07438,0 2.04131,0.40588q0.96694,0.40587 1.70707,1.19375q0.74012,0.78787 1.18181,1.92193q0.44169,1.13407 0.44169,2.59044l0,0q0,1.4325 -0.44169,2.56656q-0.44169,1.13407 -1.18181,1.91q-0.74013,0.77594 -1.70707,1.18181q-0.96693,0.40588 -2.04131,0.40588zl0,0zm0,-1.6235l0,0q0.74013,0 1.36088,-0.32231q0.62075,-0.32232 1.06243,-0.90725q0.44169,-0.58494 0.68044,-1.39669q0.23875,-0.81175 0.23875,-1.8145l0,0q0,-1.00275 -0.23875,-1.82644q-0.23875,-0.82369 -0.68044,-1.42056q-0.44168,-0.59687 -1.06243,-0.91919q-0.62075,-0.32231 -1.36088,-0.32231l0,0q-0.74012,0 -1.36087,0.32231q-0.62075,0.32232 -1.06244,0.91919q-0.44169,0.59687 -0.68044,1.42056q-0.23875,0.82369 -0.23875,1.82644l0,0q0,1.00275 0.23875,1.8145q0.23875,0.81175 0.68044,1.39669q0.44169,0.58493 1.06244,0.90725q0.62075,0.32231 1.36087,0.32231zl0,0zm10.38563,1.337l-1.95775,0l0,-11.60325l1.95775,0l0,11.60325zl0,0zm-0.955,-13.99075l0,0q-0.57301,0 -0.96694,-0.35812q-0.39394,-0.35813 -0.39394,-0.90726l0,0q0,-0.57299 0.39394,-0.91918q0.39393,-0.34619 0.96694,-0.34619l0,0q0.573,0 0.96693,0.34619q0.39394,0.34619 0.39394,0.91918l0,0q0,0.54913 -0.39394,0.90726q-0.39393,0.35812 -0.96693,0.35812zl0,0zm6.82825,13.99075l-1.95775,0l0,-11.60325l1.6235,0l0.16712,1.67125l0.07163,0q0.83562,-0.83563 1.75481,-1.39669q0.91919,-0.56106 2.13681,-0.56106l0,0q1.83838,0 2.68594,1.146q0.84756,1.146 0.84756,3.39025l0,0l0,7.3535l-1.95775,0l0,-7.09088q0,-1.64737 -0.52525,-2.37556q-0.52525,-0.72819 -1.67125,-0.72819l0,0q-0.90725,0 -1.59962,0.45363q-0.69238,0.45362 -1.57575,1.337l0,0l0,8.404z"/>
     </g>
    </g>
   </g>
   <path stroke="null" id="svg_7" fill="#7baaff" d="m34.53523,43.23286l14.72357,-0.31161l0.27012,16.98512l-14.72357,0.31161l-0.27012,-16.98512z" />
   <path stroke="null" id="svg_8" fill="#7baaff" d="m67.52438,43.38065l14.36911,-0.15936l0.0432,5.18446l-14.36911,0.15936l-0.0432,-5.18446z" />
   <path stroke="null" id="svg_9" fill="#7baaff" d="m19.12953,43.49189l14.36966,0.06636l-0.01799,5.18466l-14.36966,-0.06636l0.01799,-5.18466z" />
   <path stroke="null" id="svg_10" fill="#7baaff" d="m32.27624,74.17953l11.03206,0l0,4.79119l-11.03206,0l0,-4.79119z" />
   <path stroke="null" id="svg_11" fill="#7baaff" d="m59.8421,74.14954l9.91555,0l0,4.44375l-9.91555,0l0,-4.44375z" />
   <path stroke="null" id="svg_12" fill="#7baaff" d="m51.20799,43.06115l14.72357,-0.31161l0.27012,16.98512l-14.72357,0.31161l-0.27012,-16.98512z" />
   <path stroke="null" id="svg_13" fill="#7baaff" d="m43.83131,61.8862l14.72357,-0.31161l0.27012,16.98512l-14.72357,0.31161l-0.27012,-16.98512z" />
   <path stroke="null" id="svg_14" fill="#7baaff" d="m69.44172,79.61271l0.01531,11.43857l-3.85207,0.00686l-0.01531,-11.43857l3.85207,-0.00686z" />
   <path stroke="null" id="svg_15" fill="#7baaff" d="m36.01495,79.99062l0.01531,11.43857l-3.85207,0.00686l-0.01531,-11.43857l3.85207,-0.00686z" />
   <path stroke="null" id="svg_16" fill="#7baaff" d="m47.21688,37.96935l5.0646,0l0,3.50552l-5.0646,0l0,-3.50552z" />
   <path stroke="null" id="svg_17" fill="#7baaff" d="m33.04583,21.5562l32.96807,0l0,15.36598l-32.96807,0l0,-15.36598z" />
   <path stroke="null" id="svg_18" fill="#7baaff" d="m19.38704,50.21593l3.96023,0l0,9.20039l-3.96023,0l0,-9.20039z" />
   <path stroke="null" id="svg_19" fill="#7baaff" d="m77.4255,29.98871l4.49769,0l0,12.07203l-4.49769,0l0,-12.07203z" />
   <path stroke="null" id="svg_20" fill="#7baaff" d="m28.77543,26.51403l3.04505,0l0,5.40544l-3.04505,0l0,-5.40544z" />
   <path stroke="null" id="svg_21" fill="#7baaff" d="m67.27338,26.50353l3.04505,0l0,5.40544l-3.04505,0l0,-5.40544z" />
   <path stroke="null" id="svg_22" fill="#ffba04" d="m36.62854,25.07661l12.40816,0l0,3.74312l-12.40816,0l0,-3.74312z" />
   <path stroke="null" id="svg_23" fill="#ffba04" d="m51.22135,25.09236l12.40816,0l0,3.74312l-12.40816,0l0,-3.74312z" />
   <path stroke="null" id="svg_24" fill="#ffba04" d="m46.16187,30.72803l6.59594,0l0,1.71416l-6.59594,0l0,-1.71416z" />
   <path stroke="null" id="svg_25" fill="#ffba04" d="m30.80533,15.13246l1.37443,0l0,8.62836l-1.37443,0l0,-8.62836z" />
   <path stroke="null" id="svg_26" fill="#ffba04" d="m29.8583,13.01721l3.38117,0l0,1.29186l-3.38117,0l0,-1.29186z" />
   <path stroke="null" id="svg_27" fill="#2469ff" d="m37.54929,25.61424l0.96221,0l0,2.75383l-0.96221,0l0,-2.75383z" />
   <path stroke="null" id="svg_28" fill="#2469ff" d="m39.23902,25.59781l0.96221,0l0,2.75383l-0.96221,0l0,-2.75383z" />
   <path stroke="null" id="svg_29" fill="#2469ff" d="m41.10606,25.60152l0.96221,0l0,2.75383l-0.96221,0l0,-2.75383z" />
   <path stroke="null" id="svg_30" fill="#2469ff" d="m43.04521,25.61503l0.96221,0l0,2.75383l-0.96221,0l0,-2.75383z" />
   <path stroke="null" id="svg_31" fill="#2469ff" d="m44.9412,25.61265l0.96221,0l0,2.75383l-0.96221,0l0,-2.75383z" />
   <path stroke="null" id="svg_32" fill="#2469ff" d="m46.88932,25.62351l0.96221,0l0,2.75383l-0.96221,0l0,-2.75383z" />
   <path stroke="null" id="svg_33" fill="#2469ff" d="m51.81588,25.57741l0.96221,0l0,2.75383l-0.96221,0l0,-2.75383z" />
   <path stroke="null" id="svg_34" fill="#2469ff" d="m53.49734,25.56019l0.96221,0l0,2.75383l-0.96221,0l0,-2.75383z" />
   <path stroke="null" id="svg_35" fill="#2469ff" d="m55.30489,25.58695l0.96221,0l0,2.75383l-0.96221,0l0,-2.75383z" />
   <path stroke="null" id="svg_36" fill="#2469ff" d="m57.30905,25.63941l0.96221,0l0,2.75383l-0.96221,0l0,-2.75383z" />
   <path stroke="null" id="svg_37" fill="#2469ff" d="m59.07688,25.6206l0.96221,0l0,2.75383l-0.96221,0l0,-2.75383z" />
   <path stroke="null" id="svg_38" fill="#2469ff" d="m61.04843,25.64418l0.96221,0l0,2.75383l-0.96221,0l0,-2.75383z" />
   <path stroke="null" id="svg_39" fill="#2469ff" d="m29.20017,27.6719l1.96015,0l0,3.32658l-1.96015,0l0,-3.32658z" />
   <path stroke="null" id="svg_40" fill="#2469ff" d="m67.85612,27.53916l1.96015,0l0,3.32658l-1.96015,0l0,-3.32658z" />
   <path stroke="null" id="svg_41" fill="#ffce2f" d="m38.21131,33.98128l23.81461,0l0,0.78509l-23.81461,0l0,-0.78509z" />
   <path stroke="null" id="svg_42" fill="#ffce2f" d="m36.02065,44.96817l11.97054,0l0,13.44067l-11.97054,0l0,-13.44067z" />
   <path stroke="null" id="svg_43" fill="#ffce2f" d="m52.36627,44.22206l12.74262,0l0,14.25264l-12.74262,0l0,-14.25264z" />
  </g>
 </g>
</svg>