<svg width="100" height="100" xmlns="http://www.w3.org/2000/svg" version="1.1">
 <g>
  <title>Layer 1</title>
  <g stroke="null" id="svg_43">
   <path stroke="null" d="m2.04727,48.58387l24.24445,-44.95761l48.57054,-0.05035l24.32609,44.90726l-24.24445,44.95586l-48.57054,0.05035l-24.32609,-44.90551z" fill="#b6e565" id="svg_1"/>
   <path stroke="null" d="m29.43114,8.50181l43.29342,0.05222l21.60388,40.07562l-21.68954,40.0234l-43.29342,-0.05222l-21.60388,-40.07562l21.68954,-40.0234z" fill="#ffffff" id="svg_2"/>
   <g stroke="null" transform="matrix(0.0831258 -0.148756 0.13926 0.0887941 341.584 368.762)" id="svg_3">
    <g stroke="null" id="svg_4">
     <g stroke="null" id="svg_5">
      <path stroke="null" d="m645.22977,-2234.58957l0,0q-1.55188,0 -2.85307,-0.54912q-1.30119,-0.54913 -2.23231,-1.58769q-0.93112,-1.03856 -1.45637,-2.55463q-0.52525,-1.51606 -0.52525,-3.42606l0,0q0,-1.88612 0.53718,-3.39025q0.53719,-1.50412 1.49219,-2.55463q0.955,-1.0505 2.28006,-1.61156q1.32507,-0.56106 2.87694,-0.56106l0,0q0.81175,0 1.49219,0.16712q0.68044,0.16713 1.2415,0.44169q0.56106,0.27456 1.00275,0.62075q0.44168,0.34619 0.77593,0.70431l0,0l-1.09824,1.28926q-0.59688,-0.62076 -1.38476,-1.05051q-0.78787,-0.42974 -1.98162,-0.42974l0,0q-1.19375,0 -2.14875,0.44168q-0.955,0.44169 -1.6235,1.26538q-0.6685,0.82368 -1.03856,1.99356q-0.37007,1.16988 -0.37007,2.62625l0,0q0,1.48025 0.34619,2.66206q0.34619,1.18182 1.00275,2.01744q0.65657,0.83563 1.6235,1.28925q0.96694,0.45362 2.23232,0.45362l0,0q0.83562,0 1.58768,-0.25068q0.75206,-0.25069 1.22957,-0.68044l0,0l0,-4.08262l-3.31863,0l0,-1.64738l5.13312,0l0,6.5895q-0.76399,0.78788 -2.00549,1.30119q-1.2415,0.51331 -2.81725,0.51331zl0,0zm10.33787,-0.2865l-1.95775,0l0,-11.60325l1.95775,0l0,11.60325zl0,0zm-0.955,-13.99075l0,0q-0.573,0 -0.96694,-0.35812q-0.39393,-0.35813 -0.39393,-0.90726l0,0q0,-0.57299 0.39393,-0.91918q0.39394,-0.34619 0.96694,-0.34619l0,0q0.573,0 0.96694,0.34619q0.39393,0.34619 0.39393,0.91918l0,0q0,0.54913 -0.39393,0.90726q-0.39394,0.35812 -0.96694,0.35812zl0,0zm8.52338,14.27725l0,0q-0.93113,0 -1.56382,-0.2865q-0.63268,-0.2865 -1.02662,-0.78787q-0.39394,-0.50138 -0.56106,-1.21763q-0.16713,-0.71625 -0.16713,-1.57575l0,0l0,-6.42237l-1.719,0l0,-1.48025l1.8145,-0.11938l0.23875,-3.247l1.64738,0l0,3.247l3.12762,0l0,1.59963l-3.12762,0l0,6.44624q0,1.07438 0.39393,1.65932q0.39394,0.58494 1.39669,0.58494l0,0q0.31038,0 0.6685,-0.09551q0.35813,-0.09549 0.64463,-0.21487l0,0l0.382,1.48025q-0.4775,0.16713 -1.03857,0.29844q-0.56106,0.13131 -1.11018,0.13131zl0,0zm8.66662,0l0,0q-1.146,0 -2.14875,-0.40588q-1.00275,-0.40587 -1.73094,-1.18181q-0.72818,-0.77593 -1.146,-1.91q-0.41781,-1.13406 -0.41781,-2.56656l0,0q0,-1.45637 0.45363,-2.59044q0.45362,-1.13406 1.21762,-1.92193q0.764,-0.78788 1.77869,-1.19375q1.01469,-0.40588 2.13681,-0.40588l0,0q1.146,0 1.95775,0.40588q0.81175,0.40587 1.4325,0.955l0,0l-1.00275,1.28924q-0.50137,-0.45362 -1.06244,-0.74012q-0.56106,-0.2865 -1.25343,-0.2865l0,0q-0.78788,0 -1.45638,0.32231q-0.6685,0.32232 -1.146,0.91919q-0.4775,0.59687 -0.75206,1.42056q-0.27456,0.82369 -0.27456,1.82644l0,0q0,1.00275 0.26262,1.8145q0.26263,0.81175 0.72819,1.39669q0.46556,0.58493 1.13406,0.90725q0.6685,0.32231 1.45638,0.32231l0,0q0.81175,0 1.49218,-0.34619q0.68044,-0.34619 1.22957,-0.82369l0,0l0.8595,1.31313q-0.78788,0.69238 -1.74288,1.08631q-0.955,0.39394 -2.0055,0.39394zl0,0zm10.314,0l0,0q-1.07437,0 -2.04131,-0.40588q-0.96694,-0.40587 -1.70706,-1.18181q-0.74013,-0.77593 -1.18182,-1.91q-0.44168,-1.13406 -0.44168,-2.56656l0,0q0,-1.45637 0.44168,-2.59044q0.44169,-1.13406 1.18182,-1.92193q0.74012,-0.78788 1.70706,-1.19375q0.96694,-0.40588 2.04131,-0.40588l0,0q1.07438,0 2.04131,0.40588q0.96694,0.40587 1.70707,1.19375q0.74012,0.78787 1.18181,1.92193q0.44169,1.13407 0.44169,2.59044l0,0q0,1.4325 -0.44169,2.56656q-0.44169,1.13407 -1.18181,1.91q-0.74013,0.77594 -1.70707,1.18181q-0.96693,0.40588 -2.04131,0.40588zl0,0zm0,-1.6235l0,0q0.74013,0 1.36088,-0.32231q0.62075,-0.32232 1.06243,-0.90725q0.44169,-0.58494 0.68044,-1.39669q0.23875,-0.81175 0.23875,-1.8145l0,0q0,-1.00275 -0.23875,-1.82644q-0.23875,-0.82369 -0.68044,-1.42056q-0.44168,-0.59687 -1.06243,-0.91919q-0.62075,-0.32231 -1.36088,-0.32231l0,0q-0.74012,0 -1.36087,0.32231q-0.62075,0.32232 -1.06244,0.91919q-0.44169,0.59687 -0.68044,1.42056q-0.23875,0.82369 -0.23875,1.82644l0,0q0,1.00275 0.23875,1.8145q0.23875,0.81175 0.68044,1.39669q0.44169,0.58493 1.06244,0.90725q0.62075,0.32231 1.36087,0.32231zl0,0zm10.38563,1.337l-1.95775,0l0,-11.60325l1.95775,0l0,11.60325zl0,0zm-0.955,-13.99075l0,0q-0.57301,0 -0.96694,-0.35812q-0.39394,-0.35813 -0.39394,-0.90726l0,0q0,-0.57299 0.39394,-0.91918q0.39393,-0.34619 0.96694,-0.34619l0,0q0.573,0 0.96693,0.34619q0.39394,0.34619 0.39394,0.91918l0,0q0,0.54913 -0.39394,0.90726q-0.39393,0.35812 -0.96693,0.35812zl0,0zm6.82825,13.99075l-1.95775,0l0,-11.60325l1.6235,0l0.16712,1.67125l0.07163,0q0.83562,-0.83563 1.75481,-1.39669q0.91919,-0.56106 2.13681,-0.56106l0,0q1.83838,0 2.68594,1.146q0.84756,1.146 0.84756,3.39025l0,0l0,7.3535l-1.95775,0l0,-7.09088q0,-1.64737 -0.52525,-2.37556q-0.52525,-0.72819 -1.67125,-0.72819l0,0q-0.90725,0 -1.59962,0.45363q-0.69238,0.45362 -1.57575,1.337l0,0l0,8.404z" fill="#000000" id="svg_6"/>
     </g>
    </g>
   </g>
   <path stroke="null" d="m33.60547,41.83168l32.12848,0.06307l-0.02638,15.3319l-32.12848,-0.06307l0.02638,-15.3319z" fill="#c67aff" id="svg_7"/>
   <path stroke="null" d="m66.81927,41.92761l14.0053,-0.14382l0.04211,4.67906l-14.0053,0.14382l-0.04211,-4.67906z" fill="#c67aff" id="svg_8"/>
   <path stroke="null" d="m18.31912,41.96178l14.00584,0.05989l-0.01754,4.67923l-14.00584,-0.05989l0.01754,-4.67923z" fill="#c67aff" id="svg_9"/>
   <path stroke="null" d="m37.85399,69.60041l0.01492,10.32349l-3.75453,0.00619l-0.01492,-10.32349l3.75453,-0.00619z" fill="#c67aff" id="svg_10"/>
   <path stroke="null" d="m47.52888,37.54796l4.93637,0l0,3.16378l-4.93637,0l0,-3.16378z" fill="#c67aff" id="svg_11"/>
   <path stroke="null" d="m33.71662,22.73482l32.13335,0l0,13.86804l-32.13335,0l0,-13.86804z" fill="#c67aff" id="svg_12"/>
   <path stroke="null" d="m23.13462,47.81015l3.85996,0l0,8.3035l-3.85996,0l0,-8.3035z" fill="#c67aff" id="svg_13"/>
   <path stroke="null" d="m72.4992,47.52176l4.38381,0l0,9.78668l-4.38381,0l0,-9.78668z" fill="#c67aff" id="svg_14"/>
   <path stroke="null" d="m29.55434,27.20934l2.96795,0l0,4.8785l-2.96795,0l0,-4.8785z" fill="#c67aff" id="svg_15"/>
   <path stroke="null" d="m67.07757,27.19987l2.96795,0l0,4.8785l-2.96795,0l0,-4.8785z" fill="#c67aff" id="svg_16"/>
   <path stroke="null" d="m37.20863,25.91206l12.094,0l0,3.37822l-12.094,0l0,-3.37822z" fill="#ffba04" id="svg_17"/>
   <path stroke="null" d="m51.43196,25.92627l12.094,0l0,3.37822l-12.094,0l0,-3.37822z" fill="#ffba04" id="svg_18"/>
   <path stroke="null" d="m46.50058,31.01255l6.42894,0l0,1.54705l-6.42894,0l0,-1.54705z" fill="#ffba04" id="svg_19"/>
   <path stroke="null" d="m31.53285,16.9373l1.33963,0l0,7.78724l-1.33963,0l0,-7.78724z" fill="#ffba04" id="svg_20"/>
   <path stroke="null" d="m30.6098,15.02825l3.29556,0l0,1.16592l-3.29556,0l0,-1.16592z" fill="#ffba04" id="svg_21"/>
   <path stroke="null" d="m29.96834,28.25434l1.91052,0l0,3.00229l-1.91052,0l0,-3.00229z" fill="#ffce2f" id="svg_22"/>
   <path stroke="null" d="m67.64555,28.13454l1.91052,0l0,3.00229l-1.91052,0l0,-3.00229z" fill="#ffce2f" id="svg_23"/>
   <path stroke="null" d="m38.75132,33.94866l23.21165,0l0,0.70856l-23.21165,0l0,-0.70856z" fill="#ffce2f" id="svg_24"/>
   <path stroke="null" d="m44.05545,69.48233l0.01492,10.32349l-3.75453,0.00619l-0.01492,-10.32349l3.75453,-0.00619z" fill="#c67aff" id="svg_25"/>
   <path stroke="null" d="m60.80724,69.13427l0.01492,10.32349l-3.75453,0.00619l-0.01492,-10.32349l3.75453,-0.00619z" fill="#c67aff" id="svg_26"/>
   <path stroke="null" d="m65.97125,69.0191l0.01492,10.32349l-3.75453,0.00619l-0.01492,-10.32349l3.75453,-0.00619z" fill="#c67aff" id="svg_27"/>
   <path stroke="null" d="m67.30824,17.22996l1.33963,0l0,7.78724l-1.33963,0l0,-7.78724z" fill="#ffba04" id="svg_28"/>
   <path stroke="null" d="m66.38893,15.40332l3.29556,0l0,1.16592l-3.29556,0l0,-1.16592z" fill="#ffba04" id="svg_29"/>
   <path stroke="null" d="m35.42472,43.52777l3.68318,0l0,11.86326l-3.68318,0l0,-11.86326z" fill="#ff79c2" id="svg_30"/>
   <path stroke="null" d="m60.52056,42.77347l3.68318,0l0,12.60472l-3.68318,0l0,-12.60472z" fill="#ff79c2" id="svg_31"/>
   <path stroke="null" d="m47.82948,43.46776l3.68318,0l0,11.86326l-3.68318,0l0,-11.86326z" fill="#ff79c2" id="svg_32"/>
   <path stroke="null" d="m54.84129,43.22848l3.68318,0l0,5.28319l-3.68318,0l0,-5.28319z" fill="#ff79c2" id="svg_33"/>
   <path stroke="null" d="m54.95908,49.91919l3.68318,0l0,5.28319l-3.68318,0l0,-5.28319z" fill="#ff79c2" id="svg_34"/>
   <path stroke="null" d="m41.68677,49.81571l3.68318,0l0,5.28319l-3.68318,0l0,-5.28319z" fill="#ff79c2" id="svg_35"/>
   <path stroke="null" d="m41.79914,43.45447l3.68318,0l0,5.28319l-3.68318,0l0,-5.28319z" fill="#ff79c2" id="svg_36"/>
   <path stroke="null" d="m38.97713,58.2969l22.1753,0l0,2.77361l-22.1753,0l0,-2.77361z" fill="#ff79c2" id="svg_37"/>
   <path stroke="null" d="m33.94018,62.5191l32.02666,0l0,5.27523l-32.02666,0l0,-5.27523z" fill="#ff79c2" id="svg_38"/>
   <path stroke="null" d="m31.91301,80.89173l14.87131,0l0,3.62942l-14.87131,0l0,-3.62942z" fill="#ff79c2" id="svg_39"/>
   <path stroke="null" d="m54.23024,80.52089l14.87131,0l0,3.62942l-14.87131,0l0,-3.62942z" fill="#ff79c2" id="svg_40"/>
   <path stroke="null" d="m21.60171,56.94432l7.07568,0l0,3.47147l-7.07568,0l0,-3.47147z" fill="#ff79c2" id="svg_41"/>
   <path stroke="null" d="m71.19474,58.08958l7.07568,0l0,3.47147l-7.07568,0l0,-3.47147z" fill="#ff79c2" id="svg_42"/>
  </g>
 </g>

</svg>